<svg xmlns="http://www.w3.org/2000/svg" viewBox="0 0 64 64">
  <!-- Favicon 64: solid violet document with white PDF label -->
  <!-- Document shape (with folded corner cut into path) -->
  <path d="M14 4 a4 4 0 0 0 -4 4 v48 a4 4 0 0 0 4 4 h36 a4 4 0 0 0 4 -4 v-40 l-12 -12 z" fill="#8286ef"/>
  <!-- Folded corner triangle (lighter shade) -->
  <path d="M42 4 v8 a4 4 0 0 0 4 4 h8 z" fill="#9ea1f2"/>
  <!-- PDF letters (white, bold) -->
  <g fill="#ffffff">
    <!-- P -->
    <path d="M14 32 h5 a4 4 0 0 1 0 8 h-2.5 v4 h-2.5 z M16.5 34 v4 h2.5 a2 2 0 0 0 0 -4 z"/>
    <!-- D -->
    <path d="M24.5 32 h5 a6 6 0 0 1 0 12 h-5 z M27 34 v8 h2.5 a3.5 3.5 0 0 0 0 -8 z"/>
    <!-- F -->
    <path d="M38 32 h7 v2 h-4.5 v3 h4 v2 h-4 v5 h-2.5 z"/>
  </g>
</svg>
